#!OML:ASF H:\Terrain\Patient Classification 1\Walking\liu\liu.ASF
:FULLY-SPECIFIED
:DEGREES
340
root 18.802580 33.265400 24.036200 11.419000 22.137199 -1.900472
lowerback -12.736400 -9.174620 -4.477420
upperback -2.895560 -12.095000 6.473140
thorax 5.287480 -6.091480 8.111260
lowerneck -40.595600 -10.502820 -25.649599
upperneck 42.848999 -13.690740 27.401199
head 22.527599 -5.124060 12.287640
rclavicle -0.000000 -0.000000
rhumerus -92.447800 9.352360 -162.405197
rradius 60.704399
rwrist -30.431200
rhand -53.721802 -58.688999
rfingers 14.250040
rthumb -0.571474 -118.648003
lclavicle -0.000000 -0.000000
lhumerus -57.541000 -45.406601 202.744003
lradius 51.948601
lwrist 8.036420
lhand -22.779200 -48.265999
lfingers 14.250040
lthumb 29.290400 10.659700
rfemur -69.231400 1.903978 46.901001
rtibia 82.097000
rfoot -23.269199 4.026080
rtoes -25.973000
lfemur 19.269939 12.563860 -23.308001
ltibia 77.096802
lfoot 23.568199 1.274836
ltoes -27.750200
341
root 18.725401 33.324402 24.325800 11.430520 21.506800 -2.885140
lowerback -12.277560 -8.731280 -4.244340
upperback -3.160120 -11.528320 6.862440
thorax 4.724680 -5.798500 8.490120
lowerneck -39.637199 -10.763380 -26.313999
upperneck 42.034199 -14.089200 28.182600
head 22.166800 -5.307240 12.605980
rclavicle -0.000000 -0.000000
rhumerus -92.321800 9.689280 -162.514206
rradius 61.755600
rwrist -32.250401
rhand -55.730000 -55.627800
rfingers 14.250040
rthumb -2.511000 -115.579803
lclavicle -0.000000 -0.000000
lhumerus -58.041199 -43.094200 202.240005
lradius 49.872200
lwrist 6.824720
lhand -21.976999 -46.820599
lfingers 14.250040
lthumb 30.063200 12.048140
rfemur -67.817596 4.382960 48.099998
rtibia 81.378799
rfoot -24.631201 2.767340
rtoes -25.108601
lfemur 15.587560 13.249980 -22.088400
ltibia 82.847000
lfoot 24.686800 2.863460
ltoes -26.639799
342
root 18.690201 33.400600 24.613199 11.802880 20.917200 -2.824500
lowerback -12.423900 -8.288660 -4.477640
upperback -3.056120 -10.922200 6.770820
thorax 4.870120 -5.500340 8.569280
lowerneck -39.715000 -11.023920 -26.653200
upperneck 41.420799 -14.419220 28.722000
head 22.050600 -5.422740 12.793720
rclavicle 0.000000 -0.000000
rhumerus -91.480202 9.643120 -162.592804
rradius 62.600601
rwrist -33.423000
rhand -57.595001 -48.865799
rfingers 14.250040
rthumb -4.312340 -108.803398
lclavicle 0.000000 -0.000000
lhumerus -58.044601 -41.590401 201.462006
lradius 48.215801
lwrist 6.059300
lhand -20.856400 -44.906601
lfingers 14.250040
lthumb 31.142599 13.879760
rfemur -66.846397 5.183620 48.392799
rtibia 80.721199
rfoot -25.190001 2.639000
rtoes -24.989599
lfemur 12.037600 13.943560 -22.337799
ltibia 88.108398
lfoot 24.510000 5.322280
ltoes -23.642799
343
root 18.677700 33.484001 24.899200 12.105660 21.319599 -2.265980
lowerback -12.677340 -8.221820 -4.819080
upperback -2.814560 -10.804500 6.463380
thorax 5.251460 -5.451300 8.424300
lowerneck -40.415600 -11.246240 -26.712200
upperneck 41.547001 -14.641760 28.716801
head 22.272800 -5.502680 12.770520
rclavicle 0.000000 0.000000
rhumerus -90.464996 9.759560 -162.755402
rradius 63.356800
rwrist -34.598598
rhand -57.112598 -44.893799
rfingers 14.250040
rthumb -3.846400 -104.835999
lclavicle 0.000000 0.000000
lhumerus -58.070801 -40.907398 200.792007
lradius 46.598000
lwrist 6.166700
lhand -20.728001 -43.779598
lfingers 14.250040
lthumb 31.266199 14.997080
rfemur -65.465202 4.339740 48.178001
rtibia 79.696198
rfoot -25.701599 3.128960
rtoes -25.536200
lfemur 8.386120 13.654920 -23.297600
ltibia 93.388199
lfoot 21.894600 8.845800
ltoes -24.778601
344
root 18.683319 33.564602 25.194401 12.137900 21.448601 -1.974926
lowerback -12.561920 -8.072260 -4.589060
upperback -3.027740 -10.606160 6.101080
thorax 4.892320 -5.339440 7.956940
lowerneck -40.252800 -11.250100 -26.063999
upperneck 42.109600 -14.666780 27.698000
head 22.376600 -5.580060 12.278240
rclavicle 0.000000 0.000000
rhumerus -90.556000 9.792060 -162.958603
rradius 64.370598
rwrist -35.632000
rhand -54.613602 -49.750599
rfingers 14.250040
rthumb -1.432880 -109.707802
lclavicle 0.000000 0.000000
lhumerus -59.273602 -39.733002 200.240005
lradius 45.359798
lwrist 5.434760
lhand -20.321199 -42.682999
lfingers 14.250040
lthumb 31.657801 16.062719
rfemur -63.515800 3.476180 48.214001
rtibia 78.519203
rfoot -26.347000 3.981440
rtoes -25.036400
lfemur 5.160160 13.537760 -24.079000
ltibia 98.369400
lfoot 18.605480 12.360200
ltoes -25.225401
345
root 18.646860 33.633202 25.408600 12.671680 21.310600 -2.976840
lowerback -11.982880 -7.834800 -3.573860
upperback -3.902980 -10.343500 6.290120
thorax 3.571240 -5.174360 7.687620
lowerneck -38.788200 -11.061680 -25.788000
upperneck 41.846001 -14.527320 27.289801
head 21.941601 -5.593260 12.085100
rclavicle 0.000000 0.000000
rhumerus -91.234200 10.745040 -163.753799
rradius 65.765800
rwrist -36.803200
rhand -52.419399 -62.637600
rfingers 14.250040
rthumb 0.686444 -122.596603
lclavicle 0.000000 0.000000
lhumerus -61.047001 -37.551800 199.514999
lradius 44.823799
lwrist 3.830680
lhand -19.617960 -40.877399
lfingers 14.250040
lthumb 32.335201 17.813980
rfemur -62.919201 4.314380 49.599400
rtibia 77.416000
rfoot -25.954399 3.171340
rtoes -22.886400
lfemur 0.614204 13.869480 -23.352200
ltibia 102.837402
lfoot 16.536381 15.251300
ltoes -19.308041
346
root 18.595720 33.681999 25.619600 13.078340 20.968399 -3.949420
lowerback -11.510480 -7.528740 -3.169060
upperback -4.254980 -9.962240 6.780400
thorax 2.923780 -4.971880 8.048100
lowerneck -38.325600 -11.049000 -26.633200
upperneck 41.400002 -14.509880 28.266199
head 21.766199 -5.563500 12.597060
rclavicle 0.000000 0.000000
rhumerus -91.173798 13.313480 -165.129593
rradius 67.677803
rwrist -38.873402
rhand -54.559399 -66.281998
rfingers 14.250040
rthumb -1.380448 -126.239197
lclavicle 0.000000 0.000000
lhumerus -61.863602 -35.846600 199.023193
lradius 44.478600
lwrist 2.885060
lhand -19.039221 -39.088402
lfingers 14.250040
lthumb 32.892399 19.557440
rfemur -62.296001 5.757540 50.920200
rtibia 76.138397
rfoot -25.405800 1.895736
rtoes -21.645399
lfemur -3.865900 14.493940 -22.506201
ltibia 107.148003
lfoot 14.331920 17.545481
ltoes -13.489220
347
root 18.623501 33.756802 25.993401 12.419100 20.594999 -1.879746
lowerback -11.647960 -7.321060 -5.154460
upperback -3.400320 -9.578700 6.184760
thorax 3.959460 -4.811100 8.532200
lowerneck -39.331799 -11.398400 -27.110201
upperneck 41.551800 -14.858360 28.684401
head 22.115601 -5.676920 12.792060
rclavicle -0.000000 -0.000000
rhumerus -90.063400 15.200640 -165.843796
rradius 69.445198
rwrist -40.694801
rhand -58.222401 -59.579601
rfingers 14.250040
rthumb -4.918200 -119.510803
lclavicle -0.000000 -0.000000
lhumerus -62.160801 -35.439602 198.695007
lradius 44.386398
lwrist 2.575400
lhand -17.852779 -37.696602
lfingers 14.250040
lthumb 34.034599 20.852600
rfemur -59.035599 4.724400 49.012600
rtibia 74.949600
rfoot -26.174801 3.127760
rtoes -20.978201
lfemur -4.791040 14.151520 -25.503401
ltibia 110.188599
lfoot 11.598780 19.737280
ltoes -12.289380
